<svg width="19" height="7" viewBox="0 0 19 7" fill="none" xmlns="http://www.w3.org/2000/svg">
<path d="M18.2745 2.31987L18.116 2.02802L18.2745 2.31987C18.4777 2.20955 18.6662 2.01321 18.6662 1.73924C18.6662 1.46526 18.4777 1.26893 18.2745 1.1586C18.0678 1.04643 17.8168 1.00016 17.5855 1.00016C17.3541 1.00016 17.1031 1.04643 16.8965 1.1586L10.3771 4.69761C10.1981 4.79478 9.94136 4.85263 9.66622 4.85263C9.39109 4.85263 9.13434 4.79478 8.95534 4.69761L2.43598 1.1586C2.22935 1.04643 1.97833 1.00016 1.747 1.00016C1.51567 1.00016 1.26465 1.04643 1.05802 1.1586C0.854791 1.26893 0.666239 1.46526 0.666239 1.73924C0.666239 2.01321 0.854791 2.20955 1.05802 2.31987L1.21705 2.02692L1.05802 2.31987L7.57738 5.85888C8.16798 6.17948 8.92598 6.3335 9.66622 6.3335C10.4065 6.3335 11.1645 6.17948 11.7551 5.85888L18.2745 2.31987Z" fill="white" stroke="white" stroke-width="0.666667"/>
</svg>
